<?xml version="1.0" encoding="UTF-8"?>
<svg width="215px" height="215px" viewBox="0 0 215 215" version="1.1" xmlns="http://www.w3.org/2000/svg" xmlns:xlink="http://www.w3.org/1999/xlink">
    <!-- Generator: Sketch 45.2 (43514) - http://www.bohemiancoding.com/sketch -->
    <title>Plain1</title>
    <desc>Created with Sketch.</desc>
    <defs></defs>
    <g id="Page-1" stroke="none" stroke-width="1" fill="none" fill-rule="evenodd">
        <g id="Plain1" transform="translate(2.000000, 1.000000)" stroke="#000000" stroke-width="3">
            <path d="M114.766302,211.067478 C88.675156,211.787624 63.6517185,211.787624 39.6959894,211.067478 C3.76239561,209.987261 4.19152508,184.540256 4.19152508,160.07775 C4.19152508,135.615243 7.53973936,117.745073 29.6198175,110.786368 C44.3398696,106.147231 104.837265,104.659252 211.112005,106.322431" id="Path-2" transform="translate(107.651706, 158.635825) rotate(180.000000) translate(-107.651706, -158.635825) "></path>
            <path d="M101.647123,106.12486 C81.5151867,106.845006 59.4713542,106.845006 35.515625,106.12486 C-0.41796875,105.044643 0.0111607143,79.5976381 0.0111607143,55.1351317 C0.0111607143,30.6726253 3.359375,12.8024554 25.4394531,5.84375 C40.1595052,1.2046131 99.250651,-0.283017113 202.712891,1.38085937" id="Path-2"></path>
        </g>
    </g>
</svg>